<?xml version="1.0" encoding="UTF-8"?>
<svg xmlns="http://www.w3.org/2000/svg" id="Layer_1" data-name="Layer 1" viewBox="0 0 24 24">
  <path d="m15.476,6.699l2.504-3.339-3.359-3.359h-5.242l-3.359,3.359,2.504,3.339c-3.242,1.363-5.524,4.57-5.524,8.301,0,4.962,4.038,9,9,9s9-4.038,9-9c0-3.731-2.282-6.939-5.524-8.301Zm-5.496-3.058l.641-.641h2.758l.641.641-1.772,2.363c-.082-.002-.165-.004-.247-.004s-.165.001-.247.004l-1.772-2.363Zm2.02,17.359c-3.309,0-6-2.691-6-6s2.691-6,6-6,6,2.691,6,6-2.691,6-6,6Z"/>
</svg>
